<svg width="512" height="512" viewBox="0 0 360 360" fill="none" xmlns="http://www.w3.org/2000/svg">
  <defs>
    <linearGradient id="meshGrad" x1="0" y1="0" x2="1" y2="1">
      <stop offset="0%" stop-color="#34B3FF"/>
      <stop offset="100%" stop-color="#22D39B"/>
    </linearGradient>
    <filter id="soft" x="-20%" y="-20%" width="140%" height="140%">
      <feGaussianBlur in="SourceGraphic" stdDeviation="0.7" result="blur"/>
      <feMerge>
        <feMergeNode in="blur"/>
        <feMergeNode in="SourceGraphic"/>
      </feMerge>
    </filter>
  </defs>
  <g transform="translate(20,10)" filter="url(#soft)">
    <path d="M160 6 L300 86 L300 246 L160 326 L20 246 L20 86 Z" fill="none" stroke="url(#meshGrad)" stroke-width="16" stroke-linejoin="round"/>
    <path d="M160 66 L260 124 L260 210 L160 270 L60 210 L60 124 Z" fill="none" stroke="url(#meshGrad)" stroke-width="12" stroke-linejoin="round"/>
    <path d="M60 210 L160 66 L260 210" fill="none" stroke="url(#meshGrad)" stroke-width="12" stroke-linecap="round"/>
    <path d="M110 180 L210 180" fill="none" stroke="url(#meshGrad)" stroke-width="12" stroke-linecap="round"/>
    <circle cx="160" cy="6" r="12" fill="url(#meshGrad)"/>
    <circle cx="300" cy="86" r="12" fill="url(#meshGrad)"/>
    <circle cx="300" cy="246" r="12" fill="url(#meshGrad)"/>
    <circle cx="160" cy="326" r="12" fill="url(#meshGrad)"/>
    <circle cx="20" cy="246" r="12" fill="url(#meshGrad)"/>
    <circle cx="20" cy="86" r="12" fill="url(#meshGrad)"/>
    <circle cx="160" cy="66" r="10" fill="url(#meshGrad)"/>
    <circle cx="260" cy="124" r="10" fill="url(#meshGrad)"/>
    <circle cx="260" cy="210" r="10" fill="url(#meshGrad)"/>
    <circle cx="160" cy="270" r="10" fill="url(#meshGrad)"/>
    <circle cx="60" cy="210" r="10" fill="url(#meshGrad)"/>
    <circle cx="60" cy="124" r="10" fill="url(#meshGrad)"/>
    <circle cx="160" cy="180" r="9" fill="url(#meshGrad)"/>
    <circle cx="110" cy="180" r="9" fill="url(#meshGrad)"/>
    <circle cx="210" cy="180" r="9" fill="url(#meshGrad)"/>
  </g>
</svg>